<?xml version="1.0" encoding="UTF-8" standalone="no"?>
<svg
   width="100%"
   height="100%"
   version="1.1"
   viewBox="0 0 1920 1200"
   id="svg1"
   sodipodi:docname="ncc-1701-a-blue-WIP.svg"
   inkscape:version="1.4.2 (ebf0e940d0, 2025-05-08)"
   xmlns:inkscape="http://www.inkscape.org/namespaces/inkscape"
   xmlns:sodipodi="http://sodipodi.sourceforge.net/DTD/sodipodi-0.dtd"
   xmlns="http://www.w3.org/2000/svg"
   xmlns:svg="http://www.w3.org/2000/svg">
  <defs
     id="defs1" />
  <sodipodi:namedview
     id="namedview1"
     pagecolor="#ffffff"
     bordercolor="#000000"
     borderopacity="0.25"
     inkscape:showpageshadow="2"
     inkscape:pageopacity="0.0"
     inkscape:pagecheckerboard="true"
     inkscape:deskcolor="#d1d1d1"
     inkscape:zoom="0.6675"
     inkscape:cx="428.46442"
     inkscape:cy="553.55805"
     inkscape:window-width="1800"
     inkscape:window-height="1054"
     inkscape:window-x="0"
     inkscape:window-y="0"
     inkscape:window-maximized="1"
     inkscape:current-layer="svg1" />
  <path
     style="fill:#0969da"
     d="m 1462.8886,429.05633 c -53.148,-53.008 -117.12,-79.516 -191.93,-79.516 -67.488,0 -126.55,21.938 -177.16,65.805 -50.617,43.871 -80.988,98.285 -91.113,163.25 l 53.57,4.2188 c 14.625,0.28125 25.449,6.75 32.48,19.406 h 18.984 c 11.809,0 17.715,5.7617 17.715,17.293 0,11.5313 -5.9062,17.293 -17.715,17.293 h -17.297 c -6.75,14.344 -18.137,21.797 -34.168,22.359 l -53.57,4.6406 c 10.125,64.68 40.496,118.95 91.113,162.82 50.617,43.871 109.68,65.805 177.16,65.805 74.805,0 138.78,-26.574 191.93,-79.723 53.152,-53.148 79.727,-116.98 79.727,-191.51 0,-75.086 -26.574,-139.13 -79.727,-192.14 z m -79.422,185.27 c 0,2.9531 2.3906,5.3477 5.3438,5.3477 2.9531,0 5.3477,-2.3945 5.3477,-5.3477 0,-2.9492 -2.3945,-5.3438 -5.3477,-5.3438 -2.9531,0 -5.3438,2.3945 -5.3438,5.3438 z m -104.54,-111.07 c 0,2.9531 2.3945,5.3477 5.3438,5.3477 2.9531,0 5.3477,-2.3945 5.3477,-5.3477 0,-2.9532 -2.3945,-5.3438 -5.3477,-5.3438 -2.9492,0 -5.3438,2.3906 -5.3438,5.3438 z m -12.473,0 c 0,2.9531 2.3906,5.3477 5.3438,5.3477 2.9532,0 5.3477,-2.3945 5.3477,-5.3477 0,-2.9532 -2.3945,-5.3438 -5.3477,-5.3438 -2.9532,0 -5.3438,2.3906 -5.3438,5.3438 z m 117.01,123.55 c 0,2.9492 2.3906,5.3438 5.3438,5.3438 2.9531,0 5.3477,-2.3945 5.3477,-5.3438 0,-2.9531 -2.3945,-5.3477 -5.3477,-5.3477 -2.9531,0 -5.3438,2.3945 -5.3438,5.3477 z m -104.54,111.66 c 0,2.9531 2.3945,5.3477 5.3438,5.3477 2.9531,0 5.3477,-2.3945 5.3477,-5.3477 0,-2.9532 -2.3945,-5.3438 -5.3477,-5.3438 -2.9492,0 -5.3438,2.3906 -5.3438,5.3438 z m -12.473,0 c 0,2.9531 2.3906,5.3477 5.3438,5.3477 2.9532,0 5.3477,-2.3945 5.3477,-5.3477 0,-2.9532 -2.3945,-5.3438 -5.3477,-5.3438 -2.9532,0 -5.3438,2.3906 -5.3438,5.3438 z m -848.00004,-318.48 c 14.062,-2.5312 30.934,-4.5 50.621,-5.9062 l -46.402,-0.84375 z m 499.86,169.15 c -8.7188,-2.25 -18.141,-8.7188 -28.266,-19.402 l -101.23,-103.35 h -111.36 l 173.79,126.12 v 4.2188 c 21.652,6.1836 44.008,3.6562 67.07,-7.5938 z m 47.664,-148.48 c -0.84375,3.3711 -2.8125,6.6055 -5.9062,9.6992 h -5.0625 l -6.3242,-5.0625 h -79.305 v -4.6367 z m -5.9062,-16.031 c 3.0938,3.0938 5.0625,6.4688 5.9062,10.125 h -96.598 v -4.6406 h 79.305 l 6.3242,-5.4844 z m -541.62,397.78 4.2188,6.7461 46.402,-0.84375 c -22.5,-2.2461 -39.371,-4.2148 -50.621,-5.9023 z m 499.86,-169.15 c -23.062,-11.531 -45.418,-14.062 -67.07,-7.5938 v 4.2188 l -173.79,126.12 h 111.36 l 101.23,-103.77 c 10.406,-10.684 19.828,-17.012 28.266,-18.98 z m 47.664,148.48 h -96.598 v -4.6406 h 79.305 l 6.3242,-5.4805 h 5.0625 c 3.0938,3.6523 5.0625,7.0273 5.9062,10.121 z m -5.9062,15.609 h -5.0625 l -6.3242,-5.0625 h -79.305 v -4.6406 h 96.598 c -0.84375,3.0938 -2.8125,6.3281 -5.9062,9.7031 z m -102.5,9.6992 c 3.6562,1.4062 7.4531,2.1094 11.391,2.1094 h 64.961 c 24.746,0 37.121,-8.4336 37.121,-25.309 0,-8.4375 -4.6406,-14.691 -13.922,-18.77 -9.2773,-4.0781 -17.012,-6.1172 -23.199,-6.1172 h -64.961 c -4.7812,0 -8.5781,0.5625 -11.391,1.6875 h -333.66 c -5.0625,0 -28.543,1.6172 -70.445,4.8516 -41.902,3.2344 -62.852,7.3828 -62.852,12.441 v 11.812 c 0,4.5 20.949,8.5078 62.852,12.023 41.902,3.5156 65.383,5.2695 70.445,5.2695 z m 125.28,-207.54 h -42.602 c -3.375,1.125 -3.375,2.25 0,3.375 h 42.602 z m -43.445,8.4375 h -5.4844 v -13.5 h 5.4844 c 17.152,-6.1875 33.605,-9.9844 49.352,-11.391 l 4.6406,-25.309 4.6406,0.42188 c 0.5625,-4.2188 1.6875,-10.262 3.37504,-18.137 -28.68404,-0.5625 -64.39804,1.6875 -107.14004,6.75 3.6562,4.2148 7.4531,7.8711 11.391,10.965 4.7812,3.375 9.4219,5.625 13.918,6.75 l 12.656,2.9531 -11.812,5.9062 c -13.496,6.75 -30.23,10.121 -50.195,10.121 -5.0625,0 -8.5781,-0.14062 -10.547,-0.42188 -4.2188,-0.5625 -7.5898,-1.1211 -10.121,-1.6836 l -3.375,-1.2656 v -5.4844 l -24.043,-17.297 c -41.34,5.625 -69.32,8.5781 -83.945,8.8594 -31.496,0.28125 -47.242,11.953 -47.242,35.012 0,22.215 15.746,33.887 47.242,35.012 18.844,0.28125 46.824,3.2344 83.945,8.8594 l 24.043,-17.297 v -5.4844 l 3.375,-1.2656 c 2.5312,-0.84375 5.9023,-1.4062 10.121,-1.6875 1.9688,-0.28125 5.4844,-0.42187 10.547,-0.42187 19.965,0 36.699,3.375 50.195,10.125 l 11.812,5.4844 -12.656,3.375 c -4.4961,0.84375 -9.1367,3.0938 -13.918,6.75 -3.6562,2.2461 -7.4531,5.7617 -11.391,10.543 40.777,5.0625 76.492,7.4531 107.14004,7.1719 -1.68754,-7.3125 -2.81254,-13.359 -3.37504,-18.137 h -4.6406 l -4.6406,-24.891 c -17.434,-2.25 -33.887,-6.043 -49.352,-11.387 z m 48.508,-20.25 c -12.652,1.6875 -23.762,3.9375 -33.324,6.75 h 29.105 l 3.7969,-4.2188 z m -4.2188,20.25 h -29.105 c 9.5625,2.5312 20.672,4.7812 33.324,6.7461 l -0.42188,-2.5273 z m 136.67004,-8.4375 c 0,-8.4375 -4.2188,-12.656 -12.652,-12.656 h -21.516 c -6.4688,-12.652 -16.59,-18.98 -30.371,-18.98 l -58.21104,-5.0625 -5.9062,29.527 -4.2188,5.0625 v 7.5938 l 4.2188,5.0625 5.9062,29.105 58.21104,-5.0625 c 15.469,0 26.012,-7.3125 31.637,-21.934 h 20.25 c 8.4336,0 12.652,-4.2188 12.652,-12.656 z m -46.82,1.6875 c 0,-11.531 -5.9062,-17.297 -17.719,-17.297 -11.527,0 -17.293,5.7656 -17.293,17.297 0,11.812 5.7656,17.715 17.293,17.715 11.812,0 17.719,-5.9023 17.719,-17.715 z m 4.6406,0 c 0,14.902 -7.4531,22.355 -22.359,22.355 -14.902,0 -22.355,-7.4531 -22.355,-22.355 0,-14.906 7.4531,-22.355 22.355,-22.355 14.906,0 22.359,7.4492 22.359,22.355 z m -13.922,0 c 0,-5.625 -2.8125,-8.4375 -8.4375,-8.4375 -5.3438,0 -8.0156,2.8125 -8.0156,8.4375 0,5.625 2.6719,8.4375 8.0156,8.4375 5.625,0 8.4375,-2.8125 8.4375,-8.4375 z m 4.6406,0 c 0,8.7188 -4.3594,13.078 -13.078,13.078 -8.4375,0 -12.652,-4.3594 -12.652,-13.078 0,-8.7186 4.2148,-13.078 12.652,-13.078 8.7188,0 13.078,4.3594 13.078,13.078 z m -43.871,-2.1094 v 4.2188 h -35.01204 v -4.2188 z m 258.58,2.1094 c -0.5625,-8.4375 -4.7812,-12.656 -12.656,-12.656 -8.4336,0 -12.652,4.2188 -12.652,12.656 0,8.4372 4.2188,12.656 12.652,12.656 8.4375,0 12.656,-4.2188 12.656,-12.656 z m 4.6406,0 c 0,11.531 -5.7656,17.293 -17.297,17.293 -11.527,0 -17.293,-5.7617 -17.293,-17.293 0,-11.5313 5.7656,-17.297 17.293,-17.297 11.531,0 17.297,5.7656 17.297,17.297 z m 32.48,0 c 0,-13.781 -4.9219,-25.59 -14.766,-35.434 -9.5586,-9.5625 -21.23,-14.344 -35.012,-14.344 -15.184,0 -31.777,5.7656 -49.773,17.297 -18.559,11.531 -27.84,22.355 -27.84,32.48 0,9.8438 9.2812,20.668 27.84,32.48 17.996,11.531 34.59,17.293 49.773,17.293 13.781,0 25.453,-4.918 35.012,-14.762 9.8438,-9.5625 14.766,-21.234 14.766,-35.012 z m 5.0625,0 c 0,14.902 -5.3438,27.699 -16.031,38.387 -10.684,10.684 -23.621,16.027 -38.809,16.027 -15.746,0 -33.18,-6.0469 -52.305,-18.137 -20.246,-12.656 -30.371,-24.746 -30.371,-36.277 0,-11.531 10.125,-23.762 30.371,-36.699 19.125,-12.094 36.559,-18.137 52.305,-18.137 14.625,0 27.562,5.3398 38.809,16.027 10.688,10.969 16.031,23.902 16.031,38.809 z m -54.418,-29.105 c -3.9336,0 -10.262,1.6875 -18.98,5.0625 -7.875,3.9375 -11.812,6.4648 -11.812,7.5898 v 32.48 c 0,3.0938 3.9375,5.625 11.812,7.5938 7.875,3.375 14.203,5.0625 18.98,5.0625 19.406,0 29.391,-9.2812 29.953,-27.84 0,-19.688 -9.9844,-29.668 -29.953,-29.949 z m 34.59,29.105 v 0.84375 c 0,21.371 -11.527,32.34 -34.59,32.902 -4.4961,0 -11.527,-1.8281 -21.09,-5.4844 -7.0312,-3.9375 -10.969,-6.3281 -11.809,-7.1719 -1.6875,-1.4062 -2.5312,-3.0938 -2.5312,-5.0625 v -32.48 c 0,-1.4062 0.7031,-2.9492 2.1094,-4.6367 3.0898,-2.8125 7.168,-5.2031 12.23,-7.1719 9,-3.6562 16.031,-5.4844 21.09,-5.4844 22.5,0.28125 34.027,11.531 34.59,33.746 z m -448.40004,-206.27 h -333.66 c -5.0625,0 -28.543,1.6875 -70.445,5.0625 -41.902,3.375 -62.852,7.5938 -62.852,12.656 v 11.387 c 0,4.7812 20.949,8.8594 62.852,12.234 41.902,3.375 65.383,5.0625 70.445,5.0625 h 333.66 c 3.6562,1.4062 7.4531,2.1094 11.391,2.1094 h 64.961 c 5.3438,0 12.867,-2.25 22.566,-6.75 9.7031,-4.5 14.555,-10.547 14.555,-18.137 0.28125,-16.875 -12.094,-25.312 -37.121,-25.312 h -64.961 c -4.7812,0 -8.5781,0.5625 -11.391,1.6875 z"
     fill-rule="evenodd"
     id="ship" />
  <circle
     id="wc"
     cx="966.58856"
     cy="621.23633"
     r="12"
     fill="#ffff00"
     opacity="1"
     inkscape:label="wc" />
  <text
     id="wc_label"
     x="113.6632"
     y="704.35785"
     font-size="24px"
     fill="#000000"
     opacity="0"
     inkscape:label="wc_label">WC</text>
  <circle
     id="pn_2"
     cx="681.13293"
     cy="438.23633"
     r="12"
     fill="#ffff00"
     opacity="1"
     inkscape:label="pn_2" />
  <circle
     id="pn_1"
     cx="445.35205"
     cy="437.59552"
     r="12"
     fill="#ffff00"
     opacity="1"
     inkscape:label="pn_1" />
  <circle
     id="pn_3"
     cx="916.91388"
     cy="437"
     r="12"
     fill="#ffff00"
     opacity="1"
     inkscape:label="pn_3" />
  <circle
     id="sbn_2"
     cx="669.20782"
     cy="805.37866"
     r="12"
     fill="#ffff00"
     opacity="1"
     inkscape:label="sbn_2" />
  <circle
     id="sbn_1"
     cx="433.42697"
     cy="804.73785"
     r="12"
     fill="#ffff00"
     opacity="1"
     inkscape:label="sbn_1" />
  <circle
     id="sbn_3"
     cx="904.98883"
     cy="804.14233"
     r="12"
     fill="#ffff00"
     opacity="1"
     inkscape:label="sbn_3" />
  <text
     id="pn_1_label"
     x="113.6632"
     y="216.16125"
     font-size="24px"
     fill="#000000"
     opacity="0"
     inkscape:label="pn_1_label">PN1</text>
  <text
     id="pn_3_label"
     x="113.6632"
     y="348.45422"
     font-size="24px"
     fill="#000000"
     opacity="0"
     inkscape:label="pn_3_label">PN3</text>
  <text
     id="pn_2_label"
     x="113.6632"
     y="282.4718"
     font-size="24px"
     fill="#000000"
     opacity="0"
     inkscape:label="pn_2_label">PN2</text>
  <circle
     id="sb"
     cx="716.58856"
     cy="621.23633"
     r="12"
     fill="#ffff00"
     opacity="1"
     inkscape:label="sb" />
  <text
     id="sb_label"
     x="113.6632"
     y="544.10645"
     font-size="24px"
     fill="#000000"
     opacity="0"
     inkscape:label="sb">SB</text>
  <text
     id="sbn_1_label"
     x="113.6632"
     y="905.05872"
     font-size="24px"
     fill="#000000"
     opacity="0"
     inkscape:label="sbn_1_label">SBN1</text>
  <text
     id="sbn_2_label"
     x="113.6632"
     y="971.21106"
     font-size="24px"
     fill="#000000"
     opacity="0"
     inkscape:label="sbn_2_label">SBN2</text>
  <text
     id="sbn_3_label"
     x="113.6632"
     y="1037.3634"
     font-size="24px"
     fill="#000000"
     opacity="0"
     inkscape:label="sbn_3_label">SBN3</text>
  <circle
     id="br"
     cx="1271.0867"
     cy="621.73071"
     r="12"
     fill="#ffff00"
     opacity="1"
     inkscape:label="br" />
  <text
     id="br_label"
     x="1631.3826"
     y="704.35785"
     font-size="24px"
     fill="#000000"
     opacity="0"
     inkscape:label="br_label">BR</text>
  <circle
     id="scr_nw"
     cx="1154.0792"
     cy="502.73447"
     r="12"
     fill="#ffff00"
     opacity="1"
     inkscape:label="scr_nw" />
  <circle
     id="scr_ne"
     cx="1392.1685"
     cy="502.73447"
     r="12"
     fill="#ffff00"
     opacity="1"
     inkscape:label="scr_ne" />
  <circle
     id="scr_sw"
     cx="1154.0792"
     cy="737.36328"
     r="12"
     fill="#ffff00"
     opacity="1"
     inkscape:label="scr_sw" />
  <circle
     id="scr_se"
     cx="1392.1685"
     cy="737.36328"
     r="12"
     fill="#ffff00"
     opacity="1"
     inkscape:label="scr_se" />
  <text
     id="scr_ne_label"
     x="1631.3826"
     y="284.96204"
     font-size="24px"
     fill="#000000"
     opacity="0"
     inkscape:label="scr_ne_label">SCR_NE</text>
  <text
     id="scr_nw_label"
     x="1631.3826"
     y="213.48938"
     font-size="24px"
     fill="#000000"
     opacity="0"
     inkscape:label="scr_nw_label">SCR_NW</text>
  <text
     id="scr_se_label"
     x="1631.3826"
     y="953.44543"
     font-size="24px"
     fill="#000000"
     opacity="0"
     inkscape:label="scr_se_label">SCR_SE</text>
  <text
     id="scr_sw_label"
     x="1631.3826"
     y="1024.9181"
     font-size="24px"
     fill="#000000"
     opacity="0"
     inkscape:label="scr_sw_label">SCR_SW</text>
</svg>
